<?xml version="1.0" encoding="UTF-8" standalone="no"?>
<!-- Created with Inkscape (http://www.inkscape.org/) -->

<svg
   xmlns:dc="http://purl.org/dc/elements/1.1/"
   xmlns:cc="http://creativecommons.org/ns#"
   xmlns:rdf="http://www.w3.org/1999/02/22-rdf-syntax-ns#"
   xmlns:svg="http://www.w3.org/2000/svg"
   xmlns="http://www.w3.org/2000/svg"
   xmlns:xlink="http://www.w3.org/1999/xlink"
   xmlns:sodipodi="http://sodipodi.sourceforge.net/DTD/sodipodi-0.dtd"
   xmlns:inkscape="http://www.inkscape.org/namespaces/inkscape"
   width="100"
   height="20"
   viewBox="0 0 100 20.000001"
   id="svg2"
   version="1.1"
   inkscape:version="0.91 r13725"
   sodipodi:docname="Logo_BL.svg">
  <defs
     id="defs4">
    <linearGradient
       inkscape:collect="always"
       id="linearGradient4236">
      <stop
         style="stop-color:#009bed;stop-opacity:1;"
         offset="0"
         id="stop4238" />
      <stop
         style="stop-color:#009bed;stop-opacity:0;"
         offset="1"
         id="stop4240" />
    </linearGradient>
    <linearGradient
       inkscape:collect="always"
       xlink:href="#linearGradient4236"
       id="linearGradient4242"
       x1="46.25"
       y1="1040.755"
       x2="10.814948"
       y2="1040.9336"
       gradientUnits="userSpaceOnUse"
       gradientTransform="matrix(0.64099558,0,0,1,-4.8501025,0)" />
    <linearGradient
       inkscape:collect="always"
       xlink:href="#linearGradient4236"
       id="linearGradient4246"
       gradientUnits="userSpaceOnUse"
       x1="10.994307"
       y1="1041.1122"
       x2="50.215111"
       y2="1040.755"
       gradientTransform="matrix(0.3697478,0,0,1,76.128238,0)" />
  </defs>
  <sodipodi:namedview
     id="base"
     pagecolor="#ffffff"
     bordercolor="#666666"
     borderopacity="1.0"
     inkscape:pageopacity="0.0"
     inkscape:pageshadow="2"
     inkscape:zoom="5.6"
     inkscape:cx="47.951453"
     inkscape:cy="-11.406926"
     inkscape:document-units="px"
     inkscape:current-layer="layer1"
     showgrid="false"
     borderlayer="true"
     units="px"
     inkscape:window-width="1436"
     inkscape:window-height="855"
     inkscape:window-x="4"
     inkscape:window-y="1"
     inkscape:window-maximized="1">
    <inkscape:grid
       type="xygrid"
       id="grid4160" />
  </sodipodi:namedview>
  <metadata
     id="metadata7">
    <rdf:RDF>
      <cc:Work
         rdf:about="">
        <dc:format>image/svg+xml</dc:format>
        <dc:type
           rdf:resource="http://purl.org/dc/dcmitype/StillImage" />
        <dc:title />
      </cc:Work>
    </rdf:RDF>
  </metadata>
  <g
     inkscape:label="Layer 1"
     inkscape:groupmode="layer"
     id="layer1"
     transform="translate(0,-1032.3622)">
    <rect
       style="opacity:1;fill:#161616;fill-opacity:1;stroke:none;stroke-width:8;stroke-miterlimit:4;stroke-dasharray:none;stroke-opacity:1"
       id="rect4167"
       width="135.84871"
       height="65.941154"
       x="-2.01229"
       y="1012.6664"
       ry="0.0053267507" />
    <rect
       style="opacity:1;fill:#009bed;fill-opacity:1;stroke:none;stroke-width:8;stroke-miterlimit:4;stroke-dasharray:none;stroke-opacity:1"
       id="rect4169"
       width="60.374821"
       height="17.338625"
       x="21.070969"
       y="1033.5924"
       ry="0.0049455524" />
    <g
       transform="matrix(0.540357,0,0,0.55778669,8.7228635,952.66948)"
       style="font-style:normal;font-weight:normal;font-size:40px;line-height:125%;font-family:sans-serif;letter-spacing:0px;word-spacing:0px;fill:#161616;fill-opacity:1;stroke:none;stroke-width:1px;stroke-linecap:butt;stroke-linejoin:miter;stroke-opacity:1"
       id="flowRoot4136">
      <path
         d="m 21.84375,144.87652 8.203125,0 q 3.886719,0 5.878906,0.60547 2.011719,0.60547 3.242188,2.46094 1.230468,1.83593 1.230468,5.9375 0,2.77343 -0.878906,3.86718 -0.859375,1.09375 -3.417969,1.67969 2.851563,0.64453 3.867188,2.14844 1.015625,1.48437 1.015625,4.57031 l 0,2.92969 q 0,3.20312 -0.742188,4.74609 -0.722656,1.54297 -2.324218,2.10938 -1.601563,0.5664 -6.5625,0.5664 l -9.511719,0 0,-31.62109 z m 8.222656,5.41016 0,7.03125 q 0.527344,-0.0195 0.820313,-0.0195 1.210937,0 1.542968,-0.58593 0.332032,-0.60547 0.332032,-3.41797 0,-1.48438 -0.273438,-2.07031 -0.273437,-0.60547 -0.722656,-0.76172 -0.429688,-0.15625 -1.699219,-0.17578 z m 0,11.95312 0,8.84766 q 1.738281,-0.0586 2.207031,-0.54688 0.488282,-0.48828 0.488282,-2.40234 l 0,-2.94922 q 0,-2.03125 -0.429688,-2.46094 -0.429687,-0.42969 -2.265625,-0.48828 z"
         style="font-style:normal;font-variant:normal;font-weight:normal;font-stretch:condensed;font-family:Impact;-inkscape-font-specification:'Impact Condensed';fill:#161616;fill-opacity:1"
         id="path4239"
         inkscape:connector-curvature="0" />
      <path
         d="m 52.175781,144.87652 0,25.29297 5,0 0,6.32812 -13.222656,0 0,-31.62109 8.222656,0 z"
         style="font-style:normal;font-variant:normal;font-weight:normal;font-stretch:condensed;font-family:Impact;-inkscape-font-specification:'Impact Condensed';fill:#161616;fill-opacity:1"
         id="path4241"
         inkscape:connector-curvature="0" />
      <path
         d="m 77.878906,144.87652 0,21.13281 q 0,3.59375 -0.234375,5.0586 -0.234375,1.44531 -1.386719,2.98828 -1.152343,1.52343 -3.046875,2.32422 -1.875,0.78125 -4.433593,0.78125 -2.832032,0 -5,-0.9375 -2.167969,-0.9375 -3.242188,-2.44141 -1.074219,-1.50391 -1.269531,-3.16406 -0.195313,-1.67969 -0.195313,-7.03125 l 0,-18.71094 8.222657,0 0,23.71094 q 0,2.07031 0.214843,2.65625 0.234375,0.5664 0.917969,0.5664 0.78125,0 0.996094,-0.625 0.234375,-0.64453 0.234375,-3.00781 l 0,-23.30078 8.222656,0 z"
         style="font-style:normal;font-variant:normal;font-weight:normal;font-stretch:condensed;font-family:Impact;-inkscape-font-specification:'Impact Condensed';fill:#161616;fill-opacity:1"
         id="path4243"
         inkscape:connector-curvature="0" />
      <path
         d="m 81.0625,144.87652 13.710937,0 0,6.32812 -5.488281,0 0,5.9961 5.136719,0 0,6.01562 -5.136719,0 0,6.95313 6.035156,0 0,6.32812 -14.257812,0 0,-31.62109 z"
         style="font-style:normal;font-variant:normal;font-weight:normal;font-stretch:condensed;font-family:Impact;-inkscape-font-specification:'Impact Condensed';fill:#161616;fill-opacity:1"
         id="path4245"
         inkscape:connector-curvature="0" />
      <path
         d="m 115.125,154.44683 -7.63672,0 0,-2.34375 q 0,-1.64062 -0.29297,-2.08984 -0.29297,-0.44922 -0.97656,-0.44922 -0.74219,0 -1.13281,0.60547 -0.3711,0.60547 -0.3711,1.83594 0,1.58203 0.42969,2.38281 0.41016,0.80078 2.32422,1.93359 5.48828,3.26172 6.91406,5.35156 1.42578,2.08985 1.42578,6.73829 0,3.3789 -0.80078,4.98046 -0.78125,1.60157 -3.04687,2.69532 -2.26563,1.07422 -5.27344,1.07422 -3.30078,0 -5.64453,-1.25 -2.32422,-1.25 -3.046876,-3.1836 -0.722657,-1.93359 -0.722657,-5.48828 l 0,-2.07031 7.636723,0 0,3.84765 q 0,1.77735 0.3125,2.28516 0.33203,0.50781 1.15234,0.50781 0.82031,0 1.21094,-0.64453 0.41015,-0.64453 0.41015,-1.91406 0,-2.79297 -0.76171,-3.65234 -0.78125,-0.85938 -3.84766,-2.8711 -3.06641,-2.03125 -4.062501,-2.94922 -0.996094,-0.91797 -1.660157,-2.53906 -0.644531,-1.62109 -0.644531,-4.14062 0,-3.63282 0.917969,-5.3125 0.9375,-1.67969 3.00781,-2.61719 2.07032,-0.95703 5,-0.95703 3.20313,0 5.44922,1.03515 2.26563,1.03516 2.98828,2.61719 0.74219,1.5625 0.74219,5.33203 l 0,1.25 z"
         style="font-style:normal;font-variant:normal;font-weight:normal;font-stretch:condensed;font-family:Impact;-inkscape-font-specification:'Impact Condensed';fill:#161616;fill-opacity:1"
         id="path4247"
         inkscape:connector-curvature="0" />
      <path
         d="m 134.96875,144.87652 0,6.32812 -4.88281,0 0,25.29297 -8.22266,0 0,-25.29297 -4.86328,0 0,-6.32812 17.96875,0 z"
         style="font-style:normal;font-variant:normal;font-weight:normal;font-stretch:condensed;font-family:Impact;-inkscape-font-specification:'Impact Condensed';fill:#161616;fill-opacity:1"
         id="path4249"
         inkscape:connector-curvature="0" />
    </g>
    <rect
       style="opacity:1;fill:url(#linearGradient4242);fill-opacity:1;stroke:none;stroke-width:8;stroke-miterlimit:4;stroke-dasharray:none;stroke-opacity:1"
       id="rect4165"
       width="86.085701"
       height="1.0034983"
       x="-13.509869"
       y="1040.1882"
       ry="0.0061838026" />
    <g
       transform="matrix(0.20104206,0,0,0.21504272,-13.768465,1018.7891)"
       style="font-style:normal;font-variant:normal;font-weight:normal;font-stretch:normal;font-size:40px;line-height:125%;font-family:Arial;-inkscape-font-specification:Arial;letter-spacing:0px;word-spacing:0px;fill:#fbfbfb;fill-opacity:1;stroke:none;stroke-width:1px;stroke-linecap:butt;stroke-linejoin:miter;stroke-opacity:1"
       id="flowRoot4144">
      <path
         d="m 88.800781,67.752061 26.894529,0 0,7.070313 -9.02343,0 0,21.5625 -8.847661,0 0,-21.5625 -9.023438,0 0,-7.070313 z"
         style="font-style:normal;font-variant:normal;font-weight:900;font-stretch:normal;font-family:'Arial Black';-inkscape-font-specification:'Arial Black, Heavy';fill:#fbfbfb;fill-opacity:1"
         id="path4252"
         inkscape:connector-curvature="0" />
      <path
         d="m 119.75781,67.752061 8.84766,0 0,10.019532 9.66797,0 0,-10.019532 8.88672,0 0,28.632813 -8.88672,0 0,-11.582031 -9.66797,0 0,11.582031 -8.84766,0 0,-28.632813 z"
         style="font-style:normal;font-variant:normal;font-weight:900;font-stretch:normal;font-family:'Arial Black';-inkscape-font-specification:'Arial Black, Heavy';fill:#fbfbfb;fill-opacity:1"
         id="path4254"
         inkscape:connector-curvature="0" />
      <path
         d="m 153.05859,67.752061 23.71094,0 0,6.113282 -14.84375,0 0,4.550781 13.76953,0 0,5.839844 -13.76953,0 0,5.644531 15.27344,0 0,6.484375 -24.14063,0 0,-28.632813 z"
         style="font-style:normal;font-variant:normal;font-weight:900;font-stretch:normal;font-family:'Arial Black';-inkscape-font-specification:'Arial Black, Heavy';fill:#fbfbfb;fill-opacity:1"
         id="path4256"
         inkscape:connector-curvature="0" />
    </g>
    <path
       inkscape:connector-curvature="0"
       id="path4191"
       style="font-style:normal;font-variant:normal;font-weight:900;font-stretch:normal;font-size:medium;line-height:125%;font-family:'Arial Black';-inkscape-font-specification:'Arial Black, Heavy';letter-spacing:0px;word-spacing:0px;fill:#fbfbfb;fill-opacity:1;stroke:none;stroke-width:1px;stroke-linecap:butt;stroke-linejoin:miter;stroke-opacity:1"
       d="m 82.862588,1041.5747 1.642951,0 0,7.0456 2.564161,0 0,2.3018 -4.207112,0 0,-9.3474 z" />
    <path
       inkscape:connector-curvature="0"
       id="path4193"
       style="font-style:normal;font-variant:normal;font-weight:900;font-stretch:normal;font-size:medium;line-height:125%;font-family:'Arial Black';-inkscape-font-specification:'Arial Black, Heavy';letter-spacing:0px;word-spacing:0px;fill:#fbfbfb;fill-opacity:1;stroke:none;stroke-width:1px;stroke-linecap:butt;stroke-linejoin:miter;stroke-opacity:1"
       d="m 87.491136,1041.5747 1.646577,0 0,9.3474 -1.646577,0 0,-9.3474 z" />
    <path
       inkscape:connector-curvature="0"
       id="path4195"
       style="font-style:normal;font-variant:normal;font-weight:900;font-stretch:normal;font-size:medium;line-height:125%;font-family:'Arial Black';-inkscape-font-specification:'Arial Black, Heavy';letter-spacing:0px;word-spacing:0px;fill:#fbfbfb;fill-opacity:1;stroke:none;stroke-width:1px;stroke-linecap:butt;stroke-linejoin:miter;stroke-opacity:1"
       d="m 89.652179,1041.5747 4.402965,0 0,1.9958 -2.756389,0 0,1.4856 2.556902,0 0,1.9064 -2.556902,0 0,1.8427 2.836165,0 0,2.1169 -4.482741,0 0,-9.3474 z" />
    <rect
       ry="0.0061838026"
       y="1040.1882"
       x="71.132996"
       height="1.0034983"
       width="49.657127"
       id="rect4244"
       style="opacity:1;fill:url(#linearGradient4246);fill-opacity:1;stroke:none;stroke-width:8;stroke-miterlimit:4;stroke-dasharray:none;stroke-opacity:1" />
  </g>
</svg>
