<?xml version="1.0" encoding="UTF-8" standalone="no"?>
<!-- Created with Inkscape (http://www.inkscape.org/) -->

<svg
   xmlns:dc="http://purl.org/dc/elements/1.1/"
   xmlns:cc="http://creativecommons.org/ns#"
   xmlns:rdf="http://www.w3.org/1999/02/22-rdf-syntax-ns#"
   xmlns:svg="http://www.w3.org/2000/svg"
   xmlns="http://www.w3.org/2000/svg"
   xmlns:sodipodi="http://sodipodi.sourceforge.net/DTD/sodipodi-0.dtd"
   xmlns:inkscape="http://www.inkscape.org/namespaces/inkscape"
   id="svg4908"
   version="1.1"
   inkscape:version="0.91 r13725"
   width="320"
   height="320"
   viewBox="0 0 320 320"
   sodipodi:docname="square-TW.svg">
  <metadata
     id="metadata4914">
    <rdf:RDF>
      <cc:Work
         rdf:about="">
        <dc:format>image/svg+xml</dc:format>
        <dc:type
           rdf:resource="http://purl.org/dc/dcmitype/StillImage" />
        <dc:title></dc:title>
      </cc:Work>
    </rdf:RDF>
  </metadata>
  <defs
     id="defs4912" />
  <sodipodi:namedview
     pagecolor="#ffffff"
     bordercolor="#666666"
     borderopacity="1"
     objecttolerance="10"
     gridtolerance="10"
     guidetolerance="10"
     inkscape:pageopacity="0"
     inkscape:pageshadow="2"
     inkscape:window-width="1151"
     inkscape:window-height="686"
     id="namedview4910"
     showgrid="false"
     inkscape:zoom="1.0429825"
     inkscape:cx="101.29577"
     inkscape:cy="160"
     inkscape:window-x="90"
     inkscape:window-y="0"
     inkscape:window-maximized="0"
     inkscape:current-layer="svg4908" />
  <rect
     style="opacity:1;fill:#009bed;fill-opacity:1;stroke:#fbfbfb;stroke-width:0.25;stroke-miterlimit:4;stroke-dasharray:none;stroke-opacity:1"
     id="rect5460"
     width="320"
     height="320"
     x="0"
     y="0"
     ry="23.103367" />
  <path
     style="fill:#fbfbfb;fill-rule:evenodd;stroke:#fbfbfb;stroke-width:1px;stroke-linecap:butt;stroke-linejoin:miter;stroke-opacity:1;fill-opacity:1"
     d="m 73.898305,87.457627 c 42.691855,45.681813 84.745765,42.711863 84.745765,42.711863 0,0 -4.60113,-23.3167 10.84746,-37.9661 6.97652,-6.615614 16.93038,-10.113792 26.44067,-11.525424 15.43864,-2.291591 31.86441,12.20339 31.86441,12.20339 l 25.76271,-8.135593 -16.27118,20.338987 21.69491,-5.423733 -21.01695,21.016953 c 0,0 1.82683,30.53003 -12.88135,58.30508 -9.27784,17.52037 -23.74771,33.07441 -40.67797,43.38983 -17.65501,10.757 -39.01812,15.81644 -59.66102,16.94915 -28.943131,1.58815 -62.372879,-16.27118 -62.372879,-16.27118 0,0 41.865259,1.46383 57.627119,-17.62712 0,0 -33.269009,-7.23465 -35.932203,-27.11864 0,0 20.531393,0.89846 15.59322,-1.35594 -9.84789,-4.49581 -29.843664,-14.73266 -30.508475,-40 0,0 23.816501,8.89564 16.949153,3.38983 C 57.170036,117.14337 73.898305,87.457627 73.898305,87.457627 Z"
     id="path5458"
     inkscape:connector-curvature="0"
     sodipodi:nodetypes="scsscccccssscssssss" />
</svg>
